<svg xmlns="http://www.w3.org/2000/svg" viewBox="16.2 10.5 129.5 155.1" width="130" height="155">
  <path fill="#e8e4dd" fill-rule="evenodd" d="M82.38,164.50C81.06,164.45 80.82,164.35 80.68,163.82C80.62,163.62 80.51,162.93 80.42,162.29C80.27,161.22 80.22,161.06 79.84,160.29C79.36,159.31 79.08,159.02 78.50,158.87C77.93,158.72 77.41,158.86 76.79,159.33C76.18,159.79 75.80,159.95 74.84,160.16C73.89,160.37 73.35,160.61 72.08,161.41C71.10,162.03 69.66,162.76 68.81,163.07C68.27,163.27 68.16,163.28 65.75,163.46C63.79,163.61 62.90,163.75 61.96,164.07C61.34,164.28 61.20,164.29 59.96,164.28C58.79,164.28 58.47,164.24 57.33,164.00C56.06,163.73 56.03,163.73 54.48,163.78C52.66,163.85 52.58,163.83 51.25,163.20C50.21,162.71 48.71,162.30 46.88,161.99C45.64,161.78 44.36,161.26 41.00,159.58C39.74,158.95 38.37,158.32 37.96,158.17C36.69,157.73 35.47,157.04 33.00,155.39C31.09,154.12 30.78,153.86 30.02,152.98C29.65,152.56 28.93,151.83 28.42,151.38C27.32,150.39 26.70,149.65 25.79,148.20C24.42,146.02 23.92,145.29 22.50,143.40C20.67,140.98 20.63,140.91 19.95,139.65C19.64,139.09 19.17,138.29 18.89,137.88C18.40,137.16 18.10,136.43 17.49,134.56C17.18,133.58 17.36,132.62 18.06,131.54C18.54,130.81 20.10,129.27 21.21,128.43C22.27,127.62 22.74,127.18 23.32,126.46C23.58,126.14 23.84,125.83 23.91,125.77C24.13,125.60 25.82,124.63 26.75,124.15C27.23,123.91 27.99,123.46 28.44,123.17C29.10,122.74 29.41,122.60 30.03,122.44C30.45,122.33 31.09,122.10 31.46,121.92C32.06,121.62 32.22,121.58 33.09,121.51C34.18,121.42 34.32,121.37 35.12,120.89L35.70,120.54L36.66,120.55C37.19,120.56 39.22,120.57 41.17,120.57L44.71,120.59L45.57,121.02L46.43,121.45L47.82,121.50C48.95,121.54 49.26,121.58 49.50,121.70C50.23,122.09 51.12,122.69 51.87,123.30C53.13,124.32 53.24,124.40 53.70,124.57C53.93,124.66 54.35,124.87 54.62,125.04C54.90,125.21 55.39,125.42 55.72,125.52C56.20,125.66 56.51,125.83 57.24,126.38C57.89,126.87 58.36,127.14 58.84,127.33C59.69,127.66 61.08,128.58 61.67,129.21C62.38,129.96 63.73,130.99 64.84,131.62C66.19,132.40 67.44,133.46 69.72,135.76C71.66,137.73 71.93,138.06 72.37,139.03C72.69,139.74 73.60,141.29 74.21,142.17C74.45,142.51 74.80,143.10 75.00,143.48C75.20,143.86 75.47,144.26 75.59,144.39C75.91,144.69 76.54,144.84 77.01,144.74C77.78,144.57 77.99,144.24 78.32,142.68C78.52,141.71 78.54,141.45 78.55,139.50C78.56,137.18 78.53,137.35 79.15,136.10C79.53,135.33 79.54,135.28 79.57,134.44L79.60,133.58L79.18,132.69C78.80,131.88 78.75,131.71 78.67,130.92C78.63,130.44 78.53,129.74 78.46,129.38C78.31,128.65 78.29,127.25 78.38,125.29C78.43,124.20 78.43,124.09 78.25,123.69C78.02,123.16 77.55,122.71 76.83,122.33C76.44,122.12 76.03,121.78 75.38,121.12C74.31,120.04 74.09,119.93 72.61,119.71C71.45,119.54 71.29,119.49 70.33,118.95C69.39,118.43 67.34,117.53 66.00,117.07C65.47,116.89 64.50,116.46 63.84,116.11C63.18,115.77 62.26,115.34 61.79,115.17C60.75,114.78 60.35,114.53 59.00,113.42C58.43,112.95 57.62,112.33 57.21,112.06C56.80,111.78 56.02,111.23 55.49,110.83C54.95,110.43 54.32,110.01 54.07,109.89C53.83,109.78 53.33,109.55 52.98,109.38C52.45,109.13 52.14,108.90 51.30,108.10C50.62,107.45 50.04,106.99 49.57,106.71C48.50,106.08 48.05,105.72 47.73,105.24C47.58,104.99 47.31,104.58 47.14,104.32C46.70,103.65 45.95,102.87 44.78,101.83C43.17,100.42 42.11,99.13 41.43,97.78C41.02,96.96 40.72,96.61 40.14,96.24C39.90,96.09 39.45,95.76 39.13,95.52C38.37,94.93 38.15,94.82 36.68,94.32C35.30,93.85 33.22,92.84 32.43,92.26C32.15,92.05 31.72,91.73 31.48,91.56C31.24,91.39 30.77,91.09 30.42,90.90C29.57,90.44 27.64,88.54 27.27,87.79C26.97,87.20 26.47,86.50 25.79,85.75C25.11,85.00 24.11,83.63 23.94,83.22C23.58,82.36 22.55,80.45 21.92,79.50C21.05,78.17 20.16,76.35 19.87,75.34C19.75,74.91 19.57,74.38 19.46,74.17C18.95,73.16 18.89,72.83 18.91,71.12C18.92,69.86 18.89,69.35 18.75,68.58C18.61,67.78 18.60,67.41 18.64,66.25C18.68,65.04 18.66,64.69 18.47,63.36C18.23,61.68 18.23,61.56 18.64,60.27L18.88,59.54L18.85,57.21C18.82,54.03 18.90,53.47 19.67,51.46C19.98,50.64 20.35,49.66 20.49,49.29C20.63,48.92 20.84,48.31 20.95,47.92C21.22,47.02 21.85,45.96 22.62,45.09C22.94,44.73 23.41,44.08 23.67,43.66C23.92,43.24 24.43,42.57 24.79,42.18C25.16,41.78 25.72,41.09 26.04,40.64C26.71,39.69 27.40,39.03 28.17,38.61C29.40,37.93 30.05,37.52 30.57,37.08C31.47,36.33 33.26,34.96 33.75,34.64C34.00,34.48 34.41,34.20 34.66,34.01C34.90,33.83 35.48,33.48 35.95,33.25C36.79,32.82 36.82,32.81 37.81,32.75C38.36,32.71 39.05,32.62 39.34,32.55C40.14,32.37 42.44,31.54 43.02,31.23C43.59,30.93 44.70,29.92 45.25,29.20C45.45,28.94 46.16,28.23 46.82,27.62C48.27,26.26 48.69,26.03 50.33,25.67C51.28,25.46 51.62,25.34 52.46,24.91C53.01,24.62 53.83,24.15 54.29,23.85C55.78,22.86 56.12,22.78 59.46,22.67C62.54,22.57 62.71,22.51 64.28,21.01C64.79,20.51 65.29,20.07 65.39,20.01C65.49,19.96 65.94,19.85 66.40,19.76C66.86,19.67 67.41,19.50 67.64,19.39C67.92,19.25 68.55,18.67 69.68,17.52C70.61,16.57 71.55,15.70 71.85,15.50C72.14,15.30 72.50,15.03 72.65,14.88C72.96,14.60 73.39,13.79 73.63,13.08C73.79,12.57 73.91,12.36 74.31,11.85C74.54,11.57 74.65,11.50 74.87,11.50C75.03,11.50 75.20,11.56 75.28,11.66C75.50,11.90 75.67,12.54 75.67,13.16C75.67,14.13 76.17,14.68 77.04,14.68C77.86,14.68 78.33,14.20 78.43,13.26C78.46,12.91 78.53,12.68 78.64,12.58C78.85,12.36 79.65,12.23 80.51,12.27C81.09,12.29 81.30,12.34 81.63,12.53C82.45,12.98 82.73,13.08 83.50,13.17C84.17,13.25 84.36,13.31 84.71,13.55C85.27,13.92 85.76,14.09 86.46,14.14C87.30,14.20 87.32,14.20 87.94,14.66C88.25,14.89 88.86,15.26 89.29,15.49C90.41,16.10 90.69,16.33 92.54,18.21C94.93,20.63 95.90,21.47 96.94,22.01C97.40,22.26 98.09,22.70 98.45,22.99C98.82,23.28 99.31,23.61 99.54,23.71C99.77,23.82 100.69,24.08 101.58,24.29C103.93,24.85 105.17,25.40 106.76,26.58C107.22,26.92 107.84,27.29 108.25,27.47C108.64,27.63 109.15,27.87 109.38,28.00C109.60,28.13 110.02,28.33 110.31,28.45C110.96,28.72 114.61,30.81 115.32,31.31C116.12,31.88 117.52,33.26 118.12,34.08C118.75,34.93 119.74,35.91 120.23,36.16C120.84,36.47 121.62,36.61 122.43,36.54C122.96,36.50 123.22,36.52 123.43,36.61C123.77,36.75 125.78,38.60 126.76,39.67C128.92,42.05 129.35,42.59 129.62,43.24C129.77,43.59 130.03,44.14 130.19,44.46C130.35,44.78 130.53,45.19 130.58,45.38C130.64,45.56 130.84,46.06 131.02,46.49C131.21,46.95 131.43,47.66 131.54,48.24C131.65,48.78 131.87,49.54 132.03,49.92C132.44,50.91 132.53,51.69 132.47,53.48C132.26,58.96 132.28,58.66 132.06,59.46C131.94,59.87 131.78,60.64 131.71,61.17C131.64,61.69 131.52,62.44 131.45,62.83C131.19,64.21 131.43,66.20 132.04,67.61C132.20,67.99 132.44,68.64 132.58,69.07C132.72,69.50 133.00,70.16 133.20,70.53C133.72,71.49 134.39,73.01 134.55,73.61C134.67,74.04 134.69,74.53 134.68,76.62C134.66,79.38 134.57,80.72 134.34,81.57C133.87,83.32 133.37,84.85 133.05,85.48C132.85,85.88 132.62,86.41 132.54,86.67C132.46,86.92 132.21,87.48 132.00,87.92C131.67,88.57 131.48,88.84 130.94,89.36C129.55,90.72 127.34,92.29 126.11,92.80C125.71,92.97 124.81,93.41 124.12,93.77C122.35,94.73 122.20,94.79 121.46,95.00C120.60,95.24 118.77,95.94 118.14,96.27C117.25,96.74 116.69,97.57 116.09,99.29C115.73,100.31 115.17,101.53 114.54,102.62C114.25,103.13 113.84,103.97 113.62,104.50C113.41,105.03 113.14,105.63 113.02,105.83C112.76,106.29 111.67,107.50 109.88,109.33C109.14,110.09 107.94,111.37 107.22,112.18C105.97,113.59 105.51,114.00 104.33,114.77C104.08,114.94 103.48,115.41 103.00,115.81C102.51,116.22 101.72,116.79 101.23,117.08C100.74,117.38 100.01,117.86 99.61,118.15C98.26,119.12 97.67,119.49 97.10,119.67C96.14,119.99 95.26,120.48 94.02,121.40C93.29,121.94 92.89,122.12 91.08,122.70C90.08,123.02 89.16,123.25 88.17,123.43C86.04,123.80 85.63,123.98 85.23,124.73C84.75,125.61 84.61,127.48 84.75,131.54C84.83,134.15 84.89,134.77 85.20,136.54C85.33,137.27 85.33,137.32 85.16,137.92C85.07,138.26 84.94,138.84 84.88,139.21C84.76,139.91 84.63,143.54 84.63,146.42C84.63,148.03 84.64,148.14 84.81,148.48C85.13,149.07 85.72,149.31 86.44,149.13C86.94,149.00 87.07,148.87 87.68,147.97C88.35,146.96 88.45,146.75 88.65,145.86C88.75,145.43 88.94,144.87 89.08,144.60C89.21,144.33 89.42,143.78 89.53,143.37C89.65,142.97 90.00,142.11 90.30,141.46C91.06,139.86 91.12,139.71 91.29,139.00C91.49,138.17 91.58,138.01 92.24,137.29C92.62,136.89 92.94,136.42 93.21,135.91C93.61,135.12 94.52,133.86 95.73,132.42C96.10,131.98 97.70,130.35 99.30,128.79C102.21,125.96 102.21,125.96 103.02,125.56C103.98,125.10 104.37,124.74 105.06,123.70C105.64,122.82 105.99,122.58 106.76,122.58C107.39,122.58 108.28,122.39 108.89,122.12C109.16,122.00 109.73,121.81 110.16,121.70C110.59,121.59 111.12,121.40 111.33,121.28C112.12,120.82 112.30,120.75 112.66,120.75C113.47,120.74 114.29,120.53 115.04,120.13L115.77,119.75L117.24,119.77C118.92,119.79 118.97,119.78 119.81,119.10C120.12,118.85 120.46,118.65 120.63,118.62C120.79,118.59 121.91,118.60 123.11,118.64L125.31,118.72L126.13,119.11C127.32,119.66 127.49,119.68 129.88,119.65L131.96,119.62L132.36,119.90C133.05,120.38 133.27,120.44 134.67,120.49L135.96,120.54L136.67,120.89C137.06,121.08 137.64,121.32 137.96,121.42C138.79,121.69 140.41,122.57 141.10,123.14C141.43,123.41 141.87,123.85 142.08,124.12C142.63,124.85 143.12,125.36 143.63,125.75C143.89,125.96 144.14,126.24 144.24,126.44C144.72,127.45 144.65,130.22 144.08,132.54C143.95,133.09 143.78,134.05 143.71,134.67C143.49,136.60 143.16,137.99 142.77,138.66C142.65,138.87 142.25,139.38 141.88,139.79C141.02,140.74 140.85,140.99 139.98,142.60C138.65,145.04 138.27,145.50 133.87,150.01C132.56,151.36 132.15,151.83 131.56,152.73C131.16,153.32 130.71,153.93 130.54,154.07C129.99,154.56 128.67,155.40 125.71,157.14C125.39,157.33 124.84,157.74 124.50,158.05C123.15,159.26 122.87,159.41 121.33,159.75C120.90,159.85 120.10,160.12 119.57,160.34C119.03,160.57 118.28,160.83 117.90,160.92C117.52,161.02 116.59,161.26 115.83,161.46C114.81,161.73 114.07,161.87 112.96,162.00C110.73,162.25 110.06,162.27 107.96,162.18C106.38,162.11 105.92,162.11 105.38,162.21C104.41,162.38 104.09,162.36 103.31,162.08C102.94,161.94 102.08,161.72 101.42,161.58C99.84,161.25 98.91,160.98 97.83,160.54C97.35,160.35 96.53,160.07 96.01,159.92C95.49,159.78 94.84,159.57 94.55,159.45C94.27,159.34 93.60,159.13 93.06,159.00C91.96,158.72 89.89,157.92 88.85,157.37C87.98,156.90 87.49,156.79 86.88,156.92C86.29,157.04 86.01,157.28 85.64,157.98C85.13,158.96 85.08,159.25 85.08,161.87C85.08,163.16 85.05,164.25 85.02,164.31C84.91,164.48 84.50,164.58 83.97,164.57C83.69,164.56 82.97,164.53 82.38,164.50Z"/>
  <path fill="#252e36" fill-rule="evenodd" d="M83.65,164.37C83.35,164.21 83.36,164.03 83.69,163.40L83.96,162.88L83.95,160.80C83.95,159.58 83.89,158.10 83.81,157.25C83.57,154.71 83.48,152.44 83.53,150.58C83.63,147.24 83.67,146.87 83.97,147.07C84.02,147.10 84.11,147.42 84.19,147.79C84.45,149.10 84.83,149.82 85.40,150.06C85.63,150.15 85.77,150.16 86.13,150.08C87.11,149.88 87.23,150.21 86.91,152.16C86.82,152.73 86.77,153.30 86.80,153.45C86.88,153.87 87.17,154.31 87.50,154.54C88.21,155.03 94.37,157.38 96.92,158.12C99.06,158.75 100.13,158.96 103.14,159.37C105.85,159.74 107.10,159.83 109.27,159.83C113.30,159.83 116.73,158.95 120.85,156.86C122.41,156.07 124.56,154.78 125.50,154.07C128.49,151.81 129.46,151.01 131.24,149.34C132.59,148.07 133.88,146.63 135.07,145.08C135.51,144.51 136.26,143.55 136.73,142.96C138.13,141.20 138.89,139.99 140.24,137.33C142.10,133.67 142.50,132.36 142.88,128.79C143.05,127.07 143.14,126.69 143.35,126.57C143.49,126.50 143.57,126.52 143.74,126.64C144.12,126.92 144.20,127.21 144.24,128.31C144.28,129.61 144.14,130.75 143.83,131.85C143.64,132.47 143.55,133.01 143.50,133.83C143.26,137.14 142.94,138.17 141.70,139.62C140.92,140.53 140.39,141.34 139.58,142.83C139.25,143.45 138.75,144.28 138.48,144.68C137.90,145.54 136.04,147.61 133.70,150.00C132.36,151.37 131.89,151.91 131.34,152.74C130.38,154.15 129.50,154.85 126.60,156.49C125.76,156.96 124.91,157.52 124.38,157.95C123.13,158.97 122.93,159.07 121.04,159.66C120.59,159.81 119.82,160.10 119.34,160.31C118.86,160.51 118.14,160.76 117.75,160.85C117.36,160.94 116.35,161.20 115.50,161.42C113.22,162.02 112.55,162.06 105.58,161.97C103.21,161.94 103.21,161.94 102.34,161.68C101.87,161.54 100.99,161.32 100.39,161.21C99.01,160.93 98.72,160.85 97.75,160.44C97.31,160.25 96.64,160.02 96.25,159.91C95.86,159.81 95.17,159.58 94.72,159.40C94.27,159.22 93.49,158.97 92.98,158.83C91.44,158.41 89.73,157.64 88.18,156.69C87.43,156.22 87.00,156.15 86.59,156.43C86.29,156.63 85.17,158.41 84.94,159.04C84.78,159.46 84.65,162.51 84.76,163.17C84.87,163.88 84.85,164.07 84.63,164.30C84.39,164.53 84.00,164.56 83.65,164.37ZM59.21,164.28C58.98,164.26 58.25,164.17 57.58,164.07C56.68,163.94 55.91,163.89 54.50,163.88C52.38,163.86 52.36,163.85 51.17,163.16C50.13,162.57 49.73,162.44 48.10,162.16C46.29,161.85 46.35,161.87 45.49,161.49C45.09,161.32 44.45,161.07 44.07,160.93C43.05,160.56 41.39,159.76 40.23,159.06C38.92,158.27 38.67,158.15 37.92,157.92C36.86,157.60 35.91,157.08 34.25,155.89C33.68,155.48 32.87,154.94 32.46,154.69C31.27,153.97 30.89,153.64 30.22,152.76C29.79,152.21 29.31,151.71 28.73,151.23C27.73,150.40 27.25,149.90 26.78,149.21C26.45,148.72 25.08,146.08 25.08,145.93C25.08,145.89 25.15,145.83 25.23,145.80C25.39,145.73 26.32,146.67 28.58,149.17C29.90,150.63 30.42,151.12 31.58,152.04C31.93,152.31 32.53,152.84 32.93,153.22C33.33,153.59 33.87,154.05 34.14,154.23C34.83,154.70 37.07,155.88 38.62,156.61C39.87,157.18 40.39,157.40 42.93,158.37C43.99,158.77 45.81,159.32 47.12,159.64C47.58,159.75 48.58,159.98 49.33,160.17C52.73,160.98 57.09,161.50 59.67,161.39C61.79,161.30 64.77,160.67 68.78,159.46C70.89,158.83 71.36,158.65 72.68,157.99C75.20,156.73 77.27,155.27 77.79,154.38C78.27,153.57 78.18,153.11 76.93,149.85C75.74,146.76 75.56,146.09 75.88,145.97C75.95,145.94 76.27,146.03 76.58,146.17C77.22,146.45 77.62,146.48 77.90,146.28C78.20,146.08 78.27,145.80 78.34,144.54C78.39,143.62 78.45,143.25 78.61,142.79C78.73,142.47 78.94,141.89 79.07,141.51C79.49,140.33 79.68,140.40 79.92,141.84C80.04,142.56 80.11,143.59 80.17,145.21C80.25,147.48 80.48,152.16 80.67,155.40C80.77,157.03 80.70,158.55 80.50,158.91C80.31,159.27 80.07,159.21 79.42,158.63C79.19,158.42 78.85,158.21 78.67,158.16C78.21,158.02 77.76,158.20 76.89,158.89C76.04,159.56 75.65,159.77 74.66,160.04C74.05,160.21 73.53,160.46 72.33,161.13C70.40,162.21 68.85,162.96 68.24,163.12C67.97,163.18 67.32,163.28 66.78,163.33C65.37,163.47 63.19,163.81 62.12,164.05C61.22,164.26 60.08,164.35 59.21,164.28ZM83.69,146.27C83.54,146.17 83.27,144.91 83.17,143.88C83.13,143.37 83.05,142.13 83.00,141.12C82.95,140.12 82.88,138.90 82.84,138.42C82.65,136.29 82.55,132.62 82.65,131.53C82.71,130.94 82.75,130.03 82.75,129.50C82.75,128.31 82.46,123.98 82.29,122.58C82.22,122.01 82.12,120.90 82.08,120.12C81.81,115.37 80.99,111.46 79.70,108.79C79.14,107.62 78.76,107.12 77.57,105.95C76.32,104.73 74.92,103.73 73.64,103.14C73.22,102.95 72.01,102.36 70.96,101.83C68.76,100.72 67.09,100.12 64.88,99.64C61.91,98.98 60.41,98.84 54.62,98.67C50.35,98.54 50.33,98.54 48.84,98.22C47.02,97.82 46.73,97.72 44.83,96.79C43.67,96.22 43.13,96.00 42.91,96.00C42.43,96.00 42.33,96.07 42.33,96.38C42.33,96.75 42.72,97.20 45.02,99.55C46.26,100.81 47.18,101.66 47.86,102.19C48.41,102.61 49.43,103.43 50.12,104.00C52.23,105.76 52.92,106.29 53.88,106.90C54.38,107.21 55.73,108.18 56.89,109.05C58.54,110.29 59.53,110.96 61.60,112.21C66.39,115.10 66.59,115.19 73.75,117.62C78.01,119.07 79.17,119.93 79.17,121.63C79.17,122.41 78.96,122.75 78.49,122.75C78.30,122.75 76.77,121.99 76.29,121.66C76.11,121.54 75.68,121.19 75.33,120.88C74.57,120.21 74.09,119.96 73.17,119.79C71.76,119.53 71.36,119.40 70.62,118.99C69.05,118.12 67.12,117.26 66.11,116.97C65.21,116.72 64.52,116.41 63.50,115.84C63.10,115.61 62.41,115.29 61.97,115.13C61.52,114.97 61.04,114.77 60.89,114.70C60.54,114.52 59.60,113.81 58.88,113.17C58.55,112.89 57.75,112.28 57.08,111.82C56.42,111.36 55.54,110.73 55.13,110.41C54.73,110.10 54.07,109.68 53.68,109.49C52.67,108.98 52.22,108.69 51.46,108.00C51.09,107.68 50.21,107.02 49.50,106.55C48.08,105.60 47.79,105.33 47.00,104.17C46.48,103.40 45.78,102.66 44.04,101.00C42.59,99.63 41.81,98.53 41.46,97.37C41.34,97.01 41.19,96.62 41.11,96.51C41.04,96.40 40.66,96.16 40.27,95.98C39.88,95.80 39.30,95.48 38.98,95.28C38.30,94.84 38.06,94.72 36.35,94.07C34.88,93.52 33.49,92.77 32.33,91.90C31.89,91.59 31.26,91.17 30.92,90.98C29.43,90.16 28.44,89.24 27.46,87.75C27.05,87.14 26.42,86.33 25.92,85.79C24.53,84.30 24.15,83.71 23.76,82.38C23.44,81.32 23.01,80.37 22.59,79.81C21.67,78.59 20.39,76.19 20.04,75.03C19.91,74.62 19.67,73.97 19.50,73.58C19.12,72.72 19.05,72.33 19.17,71.60C19.30,70.75 19.41,70.43 19.58,70.33C19.81,70.21 19.97,70.41 20.16,71.07C21.06,74.20 21.57,75.79 22.02,76.84C22.97,79.04 23.85,80.51 24.89,81.67C25.16,81.96 25.62,82.51 25.92,82.88C28.46,86.05 30.88,88.15 34.08,89.98C38.13,92.30 41.00,93.21 46.42,93.91C47.13,94.00 48.44,94.17 49.33,94.28C50.23,94.40 51.61,94.53 52.42,94.58C59.20,94.97 61.77,95.35 65.19,96.47C67.42,97.19 68.08,97.26 68.08,96.79C68.08,96.48 67.11,95.50 65.68,94.39C63.58,92.75 62.34,92.00 59.93,90.92C57.58,89.87 54.66,88.54 53.46,87.98C52.73,87.64 51.32,87.05 50.33,86.68C46.91,85.37 45.00,84.54 41.79,82.96C38.76,81.48 37.87,80.98 35.96,79.68C35.18,79.15 33.89,78.28 33.08,77.75C31.02,76.38 29.28,74.89 27.72,73.18C27.35,72.78 26.15,71.52 25.05,70.38C23.85,69.14 22.73,67.89 22.28,67.29C21.86,66.74 21.18,65.92 20.76,65.46C19.44,64.03 18.73,62.89 18.56,61.89C18.48,61.41 18.50,61.27 18.75,60.16C19.06,58.87 19.06,58.74 19.00,55.83C18.97,54.32 19.08,53.63 19.58,52.46C19.75,52.05 19.96,51.50 20.03,51.25C20.16,50.80 20.40,50.38 20.86,49.80C21.08,49.53 21.11,49.41 21.17,48.64C21.23,47.68 21.31,47.49 22.02,46.51C22.53,45.80 22.81,45.55 23.03,45.63C23.15,45.68 23.17,45.75 23.14,45.97C23.07,46.38 22.22,48.35 21.78,49.11C21.48,49.61 21.36,49.93 21.25,50.52C21.17,50.95 21.00,51.61 20.89,52.00C20.61,52.95 20.50,54.11 20.50,55.99C20.50,57.71 20.53,57.94 21.00,59.86C21.39,61.41 21.69,62.22 22.63,64.12C23.38,65.66 24.06,66.77 24.87,67.75C25.15,68.09 25.78,68.88 26.27,69.50C27.40,70.96 27.89,71.40 29.30,72.27C30.97,73.29 31.17,73.40 31.55,73.48C31.97,73.58 32.46,73.43 32.68,73.15C32.90,72.87 33.96,70.91 34.71,69.42C35.06,68.71 35.60,67.69 35.90,67.17C36.63,65.89 36.83,65.40 36.83,64.83C36.83,64.37 36.78,64.14 36.22,62.13C35.86,60.86 35.13,57.47 34.95,56.29C34.67,54.39 34.72,48.49 35.04,46.38C35.51,43.29 36.81,39.20 38.39,35.83C38.62,35.35 38.93,34.64 39.08,34.26C39.51,33.18 39.91,32.83 41.69,31.96C44.14,30.78 44.59,30.65 44.58,31.15C44.58,31.52 44.08,32.63 43.32,33.96C42.47,35.45 41.74,37.00 41.08,38.71C40.82,39.40 40.38,40.47 40.10,41.10C39.52,42.41 38.75,44.53 38.56,45.38C38.43,45.93 38.16,47.37 37.83,49.25C37.63,50.39 37.52,52.09 37.45,54.92C37.39,57.53 37.46,58.52 37.83,59.95C38.28,61.68 38.59,62.25 39.07,62.25C39.39,62.25 39.70,61.99 40.36,61.14C41.40,59.83 42.33,59.02 45.39,56.74C45.96,56.33 46.80,55.75 47.27,55.45C48.64,54.59 51.78,53.06 53.25,52.55C53.96,52.31 55.52,51.74 56.71,51.30C59.32,50.33 60.57,49.96 61.79,49.79C63.54,49.55 63.92,49.42 63.92,49.06C63.92,48.60 62.81,47.73 61.29,46.98C60.34,46.51 59.82,46.31 58.83,46.03C55.89,45.21 53.32,43.15 51.30,40.02C50.85,39.33 50.17,37.78 49.93,36.90C49.57,35.60 49.24,33.44 48.92,30.29C48.81,29.22 48.69,28.44 48.58,28.13C48.37,27.52 48.37,27.19 48.58,26.88C49.05,26.17 50.50,25.70 51.16,26.04C51.46,26.19 51.54,26.50 51.42,27.01C51.30,27.52 51.32,28.25 51.46,29.12C51.53,29.54 51.58,30.27 51.59,30.75C51.59,31.89 51.74,32.67 52.16,33.77C52.35,34.27 52.76,35.47 53.08,36.45C53.66,38.22 54.31,39.68 54.89,40.56C55.50,41.48 57.25,43.07 58.41,43.75C58.71,43.93 59.18,44.13 59.44,44.21C59.89,44.34 59.94,44.34 60.13,44.21C60.49,43.98 60.37,43.59 59.58,42.37C59.00,41.47 57.53,38.52 57.01,37.21C56.59,36.16 56.50,35.70 56.24,33.58C56.03,31.79 56.05,30.40 56.33,28.83C56.56,27.55 56.75,25.58 56.75,24.56L56.75,23.73L57.06,23.42C57.23,23.25 57.60,23.02 57.88,22.91C58.33,22.73 58.50,22.71 59.83,22.71C61.61,22.71 62.18,22.78 62.48,23.04C62.82,23.33 62.77,23.70 62.27,24.79C61.80,25.81 61.44,26.86 61.08,28.29C60.60,30.20 60.55,30.62 60.55,32.96C60.54,35.05 60.55,35.18 60.82,36.62C61.15,38.46 61.27,38.91 61.64,39.88C62.15,41.21 63.05,42.68 64.13,43.95C65.18,45.19 68.14,47.21 70.08,48.03C73.94,49.64 79.21,50.70 82.58,50.56C84.35,50.48 85.49,50.31 88.25,49.71C88.96,49.55 89.90,49.38 90.33,49.33C91.45,49.21 91.87,49.12 93.34,48.70C95.32,48.15 96.57,47.61 98.16,46.63C99.04,46.08 99.46,45.69 99.79,45.14C100.23,44.38 100.61,42.28 100.72,39.92C100.80,38.27 100.56,35.76 100.16,34.08C99.87,32.84 98.41,27.99 98.09,27.16C97.74,26.29 96.34,23.66 96.05,23.34C95.79,23.06 95.42,22.92 94.70,22.86C93.95,22.80 93.80,22.69 93.71,22.15C93.60,21.50 93.32,20.80 92.95,20.23C92.64,19.78 92.40,19.55 91.68,19.03C90.84,18.43 89.26,17.11 89.00,16.80C88.82,16.57 87.71,15.69 87.21,15.37C86.70,15.05 86.60,14.79 86.95,14.70C87.17,14.65 87.41,14.75 87.77,15.05C88.11,15.33 89.30,15.96 89.81,16.12C90.63,16.38 91.43,17.12 92.37,18.44C92.89,19.18 93.13,19.41 94.08,20.12C94.52,20.44 95.18,20.99 95.55,21.35C96.12,21.89 96.38,22.06 97.13,22.41C97.62,22.64 98.27,23.01 98.57,23.24C98.88,23.46 99.31,23.74 99.54,23.86C100.06,24.12 101.33,24.52 102.44,24.79C103.48,25.03 103.76,25.15 104.65,25.68C105.47,26.18 106.00,26.65 106.00,26.90C106.00,27.28 105.41,27.21 103.78,26.66C102.70,26.29 102.21,26.25 101.91,26.49C101.59,26.74 101.66,27.28 102.29,29.50C103.37,33.33 103.73,35.00 104.00,37.52C104.28,40.14 104.22,42.06 103.74,45.42C103.60,46.40 103.51,47.33 103.54,47.48C103.60,47.83 103.90,48.03 104.22,47.95C104.70,47.84 105.32,47.46 106.55,46.54C109.04,44.69 111.54,42.48 113.40,40.48C115.52,38.21 116.41,36.67 116.41,35.29C116.41,34.51 116.09,33.51 115.57,32.64C115.40,32.38 115.39,32.32 115.50,32.25C115.65,32.15 115.80,32.23 116.71,32.92C117.21,33.30 117.69,33.77 118.16,34.33C118.80,35.11 119.47,35.71 120.45,36.42C120.92,36.76 121.17,37.13 121.17,37.51C121.16,38.57 120.03,40.82 118.75,42.30C118.41,42.69 117.47,43.64 116.67,44.39C115.34,45.65 115.03,45.89 113.11,47.17C111.96,47.94 110.71,48.73 110.35,48.91C109.11,49.53 107.13,50.40 105.96,50.83C105.32,51.06 104.38,51.42 103.88,51.62C102.73,52.08 99.99,52.87 98.97,53.05C98.50,53.13 97.26,53.21 95.75,53.25C94.40,53.29 92.58,53.35 91.71,53.37C90.84,53.40 88.12,53.46 85.67,53.50C83.21,53.55 80.65,53.62 79.96,53.66C79.27,53.71 77.70,53.78 76.46,53.83C71.99,54.01 68.56,54.25 66.28,54.55C63.48,54.91 62.15,55.07 60.79,55.21C58.84,55.41 56.52,56.00 54.21,56.88C48.58,59.01 47.06,59.86 44.82,62.14C41.92,65.09 41.23,66.18 39.47,70.58C38.33,73.45 38.13,74.13 38.18,75.00C38.26,76.23 38.69,76.78 40.54,77.96C42.51,79.21 43.86,79.84 48.42,81.63C49.45,82.03 50.85,82.62 51.54,82.94C52.23,83.26 53.69,83.92 54.79,84.41C57.15,85.47 57.76,85.77 59.21,86.60C61.90,88.14 63.99,89.51 65.52,90.72C66.80,91.75 70.26,94.97 71.82,96.58C72.91,97.72 73.89,98.62 75.28,99.78C77.57,101.69 77.85,101.90 78.22,101.97C78.78,102.07 79.10,101.83 80.17,100.50C81.22,99.19 82.91,97.53 84.46,96.27C85.96,95.05 89.83,92.48 92.22,91.10C93.03,90.64 97.10,88.75 97.29,88.75C97.35,88.75 100.01,87.61 100.84,87.22C101.19,87.06 102.24,86.64 103.17,86.29C108.24,84.38 109.09,83.95 112.37,81.60C114.50,80.08 115.09,79.57 117.08,77.53C119.49,75.08 122.31,71.60 124.12,68.86C127.70,63.45 127.96,62.97 129.05,59.70C129.97,56.95 130.49,54.10 130.39,52.46C130.35,51.69 130.00,49.59 129.78,48.73C129.58,47.94 128.53,45.19 128.05,44.21C127.55,43.20 125.82,40.70 124.65,39.30C123.28,37.67 123.08,37.41 123.08,37.20C123.08,36.93 123.39,36.86 123.76,37.05C124.53,37.44 126.92,39.63 128.18,41.10C129.35,42.46 129.51,42.70 129.79,43.44C129.90,43.75 130.16,44.33 130.36,44.73C130.56,45.13 130.79,45.68 130.87,45.96C130.95,46.23 131.12,46.75 131.26,47.11C131.39,47.47 131.60,48.16 131.71,48.65C131.83,49.14 132.04,49.87 132.17,50.28C132.61,51.56 132.69,53.39 132.37,55.17C132.30,55.60 132.25,56.41 132.25,57.25C132.25,58.13 132.21,58.80 132.13,59.12C132.07,59.40 131.94,60.17 131.84,60.83C131.74,61.50 131.57,62.38 131.46,62.79C131.19,63.77 131.19,64.51 131.46,65.70C131.58,66.21 131.73,66.87 131.79,67.16C131.86,67.45 132.06,68.01 132.24,68.41C132.42,68.80 132.67,69.38 132.78,69.68C132.90,69.99 133.18,70.59 133.40,71.02C133.97,72.08 134.56,73.59 134.66,74.27C134.73,74.66 134.73,75.17 134.67,75.94C134.62,76.54 134.58,77.57 134.58,78.21C134.58,79.78 134.48,80.57 134.03,82.54C133.75,83.78 133.56,84.41 133.29,85.00C133.09,85.44 132.77,86.17 132.58,86.62C132.00,88.01 131.69,88.55 131.15,89.13C129.90,90.48 128.08,91.83 126.62,92.50C126.21,92.69 125.05,93.26 124.04,93.75C122.66,94.44 121.98,94.72 121.28,94.91C120.27,95.18 118.42,95.89 117.86,96.21C117.12,96.64 116.56,97.50 116.04,99.00C115.70,99.96 114.95,101.57 114.35,102.61C114.12,103.01 113.83,103.59 113.70,103.90C112.83,106.03 112.46,106.54 109.88,109.17C109.00,110.06 107.76,111.37 107.13,112.08C105.85,113.51 105.54,113.80 104.47,114.52C104.07,114.79 103.36,115.34 102.89,115.74C102.42,116.14 101.39,116.91 100.58,117.44C99.78,117.98 98.82,118.64 98.44,118.91C98.06,119.18 97.50,119.50 97.19,119.62C96.06,120.08 95.10,120.59 94.05,121.28C92.35,122.42 90.44,123.09 88.17,123.37C85.95,123.64 85.79,123.67 85.58,123.82C85.11,124.17 85.01,124.61 84.84,127.18C84.75,128.50 84.86,133.47 85.00,134.79C85.18,136.46 85.19,137.51 85.05,138.38C84.86,139.55 84.75,140.94 84.75,142.26C84.75,143.70 84.64,144.51 84.32,145.46C84.03,146.29 83.93,146.42 83.69,146.27ZM22.28,142.23C21.50,141.47 20.98,140.80 20.32,139.64C20.04,139.14 19.59,138.43 19.32,138.06C18.65,137.14 18.46,136.69 18.16,135.40C17.79,133.76 17.79,133.79 17.99,133.59C18.09,133.49 18.22,133.44 18.29,133.47C18.37,133.50 18.65,133.98 18.92,134.53C19.48,135.68 20.49,137.57 21.64,139.60C22.37,140.90 23.17,142.49 23.17,142.66C23.17,142.70 23.11,142.76 23.03,142.78C22.94,142.82 22.70,142.64 22.28,142.23ZM79.35,139.68C79.30,139.65 79.14,139.36 78.99,139.04C78.56,138.12 78.66,137.26 79.21,137.12C79.69,137.00 79.92,137.35 79.91,138.17C79.91,138.50 79.88,138.72 79.71,139.47C79.66,139.67 79.49,139.77 79.35,139.68ZM71.12,139.01C70.72,138.77 68.92,136.42 68.92,136.14C68.92,135.82 69.20,135.95 70.03,136.66C70.96,137.47 71.25,137.80 71.50,138.35C71.70,138.80 71.71,138.97 71.51,139.08C71.40,139.14 71.30,139.12 71.12,139.01ZM139.72,123.34C139.06,123.00 138.10,122.28 138.09,122.11C138.08,121.92 138.35,121.93 139.06,122.17C139.84,122.44 140.33,122.73 140.59,123.09C140.78,123.37 140.79,123.55 140.62,123.62C140.41,123.70 140.38,123.69 139.72,123.34ZM88.04,120.17C91.10,119.62 92.12,119.29 94.54,118.07C96.72,116.97 97.28,116.65 98.85,115.61C100.30,114.65 100.84,114.23 103.13,112.30C106.31,109.61 108.50,107.18 110.71,103.87C112.81,100.74 114.17,97.90 114.17,96.65C114.17,95.68 113.79,95.48 112.39,95.71C111.92,95.78 110.87,95.88 110.04,95.92C109.22,95.96 107.74,96.03 106.75,96.08C104.78,96.18 103.16,96.33 101.38,96.58C100.73,96.67 99.83,96.78 99.38,96.84C98.12,96.97 96.55,97.22 94.88,97.54C94.05,97.70 93.06,97.87 92.67,97.92C91.72,98.05 89.47,98.62 88.77,98.91C86.20,99.99 85.10,100.56 83.62,101.57C81.12,103.29 80.25,104.20 80.25,105.12C80.25,105.71 80.33,105.83 82.73,109.17C83.32,109.98 84.03,111.40 84.37,112.45C84.86,113.92 84.94,114.66 84.95,117.39C84.96,119.72 84.97,119.83 85.13,120.06C85.30,120.29 85.71,120.49 86.04,120.50C86.13,120.50 87.03,120.35 88.04,120.17ZM95.35,94.63C95.97,94.52 96.99,94.39 97.61,94.34C98.23,94.29 99.52,94.14 100.47,94.01C102.65,93.69 105.21,93.36 105.92,93.30C106.21,93.27 107.28,93.18 108.29,93.09C109.30,92.99 110.88,92.86 111.79,92.79C112.71,92.72 113.93,92.60 114.50,92.53C115.07,92.46 116.10,92.37 116.78,92.33C118.56,92.22 120.69,91.81 122.22,91.28C123.67,90.78 125.58,89.83 127.00,88.89C127.78,88.38 128.98,87.17 129.58,86.29C130.05,85.60 131.08,83.46 131.29,82.72C131.47,82.07 131.67,80.44 131.72,79.08C131.86,75.71 131.13,71.58 130.30,71.04C130.09,70.91 130.06,70.90 129.72,71.03C129.28,71.20 129.10,71.20 128.30,71.04C127.46,70.86 127.21,70.94 126.69,71.57C126.48,71.83 126.03,72.32 125.71,72.67C125.38,73.01 124.73,73.78 124.25,74.38C121.10,78.32 117.80,81.49 115.34,82.94C114.99,83.14 114.20,83.61 113.58,83.98C111.88,84.99 110.40,85.69 107.52,86.84C106.73,87.16 105.03,87.95 103.73,88.59C102.43,89.24 100.59,90.14 99.64,90.59C97.33,91.67 96.48,92.15 95.32,93.02C94.19,93.86 93.67,94.35 93.67,94.58C93.67,94.89 93.88,94.89 95.35,94.63ZM78.12,30.41C77.45,30.32 75.44,29.79 74.37,29.41C73.23,29.02 71.20,27.99 70.45,27.44C69.48,26.71 67.15,24.49 66.77,23.92C66.59,23.65 66.31,23.10 66.15,22.70C65.98,22.29 65.75,21.77 65.63,21.55C65.35,21.02 65.35,20.72 65.65,20.42C65.91,20.17 66.21,20.05 67.62,19.66C68.17,19.52 68.83,19.34 69.09,19.26C69.76,19.08 70.00,19.19 70.39,19.91C70.56,20.21 70.89,20.72 71.13,21.04C71.36,21.36 71.87,22.09 72.25,22.66C73.07,23.87 74.20,25.09 74.99,25.62C76.07,26.33 77.90,27.03 79.12,27.18C80.09,27.31 80.33,27.25 80.33,26.91C80.33,26.65 80.36,26.68 78.86,25.60C78.58,25.41 78.05,24.90 77.67,24.48C77.29,24.05 76.38,23.14 75.66,22.43C73.75,20.59 72.98,19.61 72.22,18.11C71.63,16.93 71.69,16.45 72.54,15.33C72.95,14.80 73.17,14.38 73.38,13.75C73.81,12.40 74.43,11.77 74.96,12.12C75.27,12.32 75.35,12.59 75.42,13.78C75.51,15.11 75.67,15.52 76.25,15.81C76.97,16.18 77.45,16.00 77.91,15.20C78.53,14.11 78.94,13.58 79.30,13.37C79.72,13.12 79.85,13.16 80.20,13.62C80.32,13.78 80.69,14.13 81.01,14.39C81.33,14.65 82.05,15.35 82.60,15.95C84.35,17.87 85.74,20.16 86.88,23.04C87.19,23.82 87.53,24.58 87.64,24.73C87.88,25.05 88.23,25.25 88.56,25.25C88.69,25.25 89.38,24.97 90.09,24.63C91.31,24.03 91.69,23.92 92.03,24.05C92.24,24.13 92.19,24.44 91.91,24.84C91.49,25.42 90.26,26.58 89.41,27.18C87.84,28.30 85.21,29.40 82.47,30.10C81.26,30.40 81.00,30.44 79.92,30.46C79.25,30.48 78.45,30.45 78.12,30.41ZM82.50,23.92C83.07,23.34 82.52,21.48 81.16,19.42C79.85,17.44 78.39,16.47 77.61,17.05C77.05,17.47 76.91,18.17 77.25,18.83C77.81,19.92 80.69,23.20 81.65,23.83C82.09,24.13 82.27,24.14 82.50,23.92Z"/>
</svg>
